HIERARCHY
ROOT Hips
{
  OFFSET -35.4901 99.2528 17.4586
  CHANNELS 6 Xposition Yposition Zposition Zrotation Xrotation Yrotation
  JOINT LeftUpLeg
  {
    OFFSET 8.64259 1.95398 -2.38835
    CHANNELS 3 Zrotation Xrotation Yrotation
    JOINT LeftLeg
    {
      OFFSET 43.7702 0 0
      CHANNELS 3 Zrotation Xrotation Yrotation
      JOINT LeftFoot
      {
        OFFSET 40.6238 0 0
        CHANNELS 3 Zrotation Xrotation Yrotation
        JOINT LeftToeBase
        {
          OFFSET 12.7242 0 0
          CHANNELS 3 Zrotation Xrotation Yrotation
          End Site
          {
            OFFSET 0 0 0
          }
        }
      }
    }
  }
  JOINT RightUpLeg
  {
    OFFSET -8.2249 1.95398 -2.59336
    CHANNELS 3 Zrotation Xrotation Yrotation
    JOINT RightLeg
    {
      OFFSET 43.5653 0 0
      CHANNELS 3 Zrotation Xrotation Yrotation
      JOINT RightFoot
      {
        OFFSET 40.6238 0 0
        CHANNELS 3 Zrotation Xrotation Yrotation
        JOINT RightToeBase
        {
          OFFSET 12.7242 0 0
          CHANNELS 3 Zrotation Xrotation Yrotation
          End Site
          {
            OFFSET 0 0 0
          }
        }
      }
    }
  }
  JOINT Spine
  {
    OFFSET 0.165834 0.87714 6.61349
    CHANNELS 3 Zrotation Xrotation Yrotation
    JOINT Spine1
    {
      OFFSET 7.38963 1.71661e-005 0
      CHANNELS 3 Zrotation Xrotation Yrotation
      JOINT Spine2
      {
        OFFSET 11.9445 1.14441e-005 0
        CHANNELS 3 Zrotation Xrotation Yrotation
        JOINT Spine3
        {
          OFFSET 14.7254 4.19617e-005 0
          CHANNELS 3 Zrotation Xrotation Yrotation
          JOINT Spine4
          {
            OFFSET 10.9679 0 0
            CHANNELS 3 Zrotation Xrotation Yrotation
            JOINT RightShoulder
            {
              OFFSET 2.46616 -1.6653 3.69651
              CHANNELS 3 Zrotation Xrotation Yrotation
              JOINT RightArm
              {
                OFFSET 13.0012 0 0
                CHANNELS 3 Zrotation Xrotation Yrotation
                JOINT RightForeArm
                {
                  OFFSET 28.7848 1.52588e-005 0
                  CHANNELS 3 Zrotation Xrotation Yrotation
                  JOINT RightHand
                  {
                    OFFSET 26.5688 1.52588e-005 0
                    CHANNELS 3 Zrotation Xrotation Yrotation
                    End Site
                    {
                      OFFSET 0 0 0
                    }
                  }
                }
              }
            }
            JOINT LeftShoulder
            {
              OFFSET 2.38034 -1.29275 -3.7523
              CHANNELS 3 Zrotation Xrotation Yrotation
              JOINT LeftArm
              {
                OFFSET 16.3182 6.10351e-005 0
                CHANNELS 3 Zrotation Xrotation Yrotation
                JOINT LeftForeArm
                {
                  OFFSET 27.0901 0 0
                  CHANNELS 3 Zrotation Xrotation Yrotation
                  JOINT LeftHand
                  {
                    OFFSET 24.5451 1.52588e-005 0
                    CHANNELS 3 Zrotation Xrotation Yrotation
                    End Site
                    {
                      OFFSET 0 0 0
                    }
                  }
                }
              }
            }
            JOINT Neck
            {
              OFFSET 5.0226 -0.0266342 0
              CHANNELS 3 Zrotation Xrotation Yrotation
              JOINT Head
              {
                OFFSET 6.69364 2.86102e-005 0
                CHANNELS 3 Zrotation Xrotation Yrotation
                End Site
                {
                  OFFSET 0 0 0
                }
              }
            }
          }
        }
      }
    }
  }
}
MOTION
Frames:	10
Frame Time:	0.0416667
90.7941 90.3586 111.802 -89.8051 46.3635 -87.5286 -169.621 19.8231 91.2899 -56.0013 17.7046 -2.50084 88.9282 12.8548 -1.33794 27.6113 5.40381 -8.76997 -178.37 23.9358 86.3174 -81.4561 -4.7297 -3.47144 77.6098 -9.39997 -4.38614 5.91133 -1.53963 4.71604 -0.352475 8.2563 -90.5629 10.3611 -0.959855 -1.03275 -1.30983 -1.00438 -0.989519 -23.8436 -0.605121 -1.27344 -3.83098 -0.605129 -1.27346 92.2227 -30.6174 -102.116 30.2961 -10.5803 11.9602 -51.045 -2.37611 -86.4713 -32.6272 0.849114 -13.3073 -84.357 -50.3182 87.2588 -11.7935 8.0561 -12.8477 39.3295 -15.7147 -97.3242 -6.16666 0.491428 -21.0177 24.0032 5.12557 -7.30121 -4.62784 7.27675 6.19755 
97.062 91.1979 118.785 -94.2568 48.5632 -85.9771 -170.059 22.6782 89.2516 -54.0145 16.4788 -3.29247 82.7603 10.4011 -0.210185 24.0011 4.62173 -6.71242 -179.945 6.52877 83.2483 -74.4275 -10.3481 -5.61999 70.374 -5.9176 -4.30283 11.2662 -2.20584 5.82019 0.483449 8.24757 -90.3267 10.3784 0.813625 -0.719917 -1.29253 0.781171 -0.755038 -23.8286 0.992355 -0.442094 -3.81593 0.992369 -0.442096 91.1224 -28.9637 -104.913 29.3853 -0.848545 3.2065 -54.8857 -8.67399 -92.7201 -35.0866 0.105043 -10.9903 -82.4531 -53.2973 90.354 -18.8125 15.1705 8.30201 42.8495 -17.4172 -95.6049 -10.7452 1.31842 -23.445 15.8332 2.83412 -3.88625 -1.00507 3.8645 3.06516 
103.465 92.6599 125.618 -96.0737 51.1837 -86.5695 -171.293 24.4932 87.5135 -45.945 14.9284 -4.71089 74.2067 6.74332 1.21127 21.6254 4.43046 -5.90699 177.51 -5.69854 81.1305 -61.4059 -20.6708 -9.498 64.7863 -2.90755 -1.80262 15.9412 -1.77778 4.99043 1.41017 8.15363 -90.0557 10.5735 2.78306 -0.361044 -1.09455 2.76446 -0.483278 -23.6532 2.7628 0.492727 -3.6406 2.76279 0.492723 91.4371 -24.8833 -105.793 30.8791 3.31929 -4.23074 -46.9787 -5.33823 -92.6128 -35.4865 0.705499 -11.9072 -81.5609 -51.4278 91.5395 -24.0795 22.8628 26.3372 34.8423 -21.45 -99.5572 -9.93078 1.25539 -24.5354 11.1347 0.215659 -2.8577 0.337066 0.900412 0.965048 
111.125 93.3246 133.021 -93.0547 52.5169 -89.7995 -172.09 28.7186 87.8705 -34.9355 19.83 -5.95977 64.3618 2.17705 2.09191 20.92 2.37583 -2.75459 175.923 -10.3312 81.2677 -50.5306 -32.2646 -12.2513 63.7056 -2.35799 -2.45322 19.7426 -2.32748 6.13308 2.00881 8.02394 -89.8948 10.8345 4.04825 -0.169615 -0.830115 4.03686 -0.347927 -23.4139 3.91177 1.05683 -3.40128 3.91176 1.05682 93.1915 -19.4775 -104.021 32.1824 5.83195 -11.202 -46.2404 -3.38704 -94.074 -34.2895 1.17859 -13.8866 -83.2479 -47.5622 88.6327 -28.661 24.7092 36.9745 32.9465 -24.4251 -102.283 -7.82946 0.874465 -24.4989 12.049 -1.76395 -2.34025 -1.08358 -1.14682 0.229724 
120.002 91.6669 140.996 -87.1218 52.001 -94.1242 -170.203 38.6217 88.665 -37.5677 30.486 -6.59562 65.0189 2.12521 0.590022 20.6774 -0.821391 1.91304 176.773 -8.5887 84.8024 -41.7872 -29.0472 -10.8959 71.4907 -6.13345 -3.57764 32.3088 -3.56523 10.017 1.8954 7.78739 -89.832 11.3044 3.85026 -0.0453207 -0.3609 3.84453 -0.215 -22.9391 3.68562 1.11554 -2.92648 3.68563 1.11554 93.7417 -17.2375 -103.605 31.4943 9.53332 -16.5327 -39.4595 -2.04377 -99.4213 -37.3516 1.06627 -11.8479 -84.8726 -44.4618 85.6877 -32.7306 23.0482 41.527 34.6524 -26.9062 -104.521 -6.55596 0.681216 -25.3078 16.5844 -1.67539 -2.37129 -4.12056 -0.966369 0.650276 
129.242 88.1333 149.042 -88.8896 50.5332 -91.5978 -163.779 47.0917 87.8805 -61.8629 27.0572 -4.66556 72.6968 5.85167 1.6006 20.5252 0.679099 -0.297381 178.074 -4.96874 88.3373 -44.3872 -16.1368 -8.40604 92.8654 -15.1218 -0.408956 40.0822 -2.07808 5.7096 1.38176 8.0429 -90.1009 10.7937 2.70488 -0.450886 -0.874529 2.6824 -0.569571 -23.432 2.71525 0.383508 -3.41939 2.71522 0.383505 94.1797 -17.9483 -102.223 30.9732 9.19799 -19.7318 -37.6147 -0.682463 -103.315 -41.536 1.4375 -11.9659 -84.2278 -46.8479 87.0232 -31.0908 25.4907 35.8925 36.7512 -27.7636 -104.248 -8.2831 1.0905 -26.8394 19.3845 0.12224 -1.9484 -3.50006 0.690043 1.93485 
137.539 85.561 156.199 -93.6989 47.4896 -83.1308 -163.577 49.3466 92.4108 -84.3784 20.9048 1.955 76.7812 7.81598 0.523034 21.8319 0.491428 -0.140209 177.86 2.61603 92.5675 -53.8363 -9.44651 -3.94552 104.956 -18.0967 6.01408 26.8259 -1.3419 3.71469 0.643858 8.53674 -90.7331 9.80468 0.951297 -1.53019 -1.86687 0.88304 -1.57058 -24.4001 1.36717 -1.17359 -4.38748 1.36716 -1.17361 93.1094 -22.7041 -102.943 30.0925 7.37797 -16.8775 -41.0035 4.59785 -102.65 -36.7133 1.1316 -12.3328 -81.8931 -52.0205 91.0881 -22.7517 28.5591 17.9331 37.8549 -23.631 -99.0847 -9.69854 1.19648 -24.2714 22.8596 2.19928 -4.35253 -4.42588 3.49394 3.92839 
143.501 85.4733 161.589 -95.0649 44.4568 -81.0382 -166.813 42.9507 96.7116 -94.3726 21.828 5.83755 72.0852 6.25087 4.74801 26.3101 3.77424 -5.81125 175.317 9.25586 93.2548 -58.5964 -12.6083 -1.28088 102.818 -18.6755 3.19342 26.5962 -1.59178 4.31359 0.141469 8.65701 -90.9406 9.55413 -0.141947 -1.85317 -2.1181 -0.223358 -1.84515 -24.6431 0.421482 -1.81019 -4.63043 0.421464 -1.81021 91.7553 -25.2432 -104.98 33.4313 4.96867 -3.97266 -38.7582 -0.182825 -98.106 -36.3773 1.68865 -13.9615 -82.518 -53.9839 90.3242 -14.7879 28.378 -3.05342 39.756 -19.4315 -94.6922 -10.539 1.30784 -23.6668 20.3247 3.43812 -3.45692 -2.19397 4.38557 2.32508 
148.189 86.2868 166.603 -97.2234 44.0212 -80.107 -168.279 29.1076 100.229 -93.4686 21.2223 7.1044 71.9521 6.28187 5.06481 28.3217 1.99212 -3.27939 175.368 13.1519 93.0364 -59.2689 -12.3868 -1.36348 100.967 -18.4723 1.78598 22.0872 -2.16881 5.88672 -0.089222 8.52483 -90.7364 9.81923 -0.511514 -1.41966 -1.85236 -0.573469 -1.39579 -24.3814 -0.061244 -1.50774 -4.36879 -0.061243 -1.50774 91.776 -28.2841 -103.802 37.8805 -2.20596 7.67664 -36.3077 -5.31509 -89.749 -33.2006 2.13704 -16.1496 -83.2093 -51.5401 89.094 -10.679 26.3208 -19.2754 37.422 -17.1931 -93.8689 -7.68717 0.775364 -22.9595 15.1259 3.69501 -6.73674 -1.79004 5.38975 4.48065 
152.505 87.2774 171.843 -97.193 48.2727 -81.4359 -167.476 15.2683 100.444 -84.6673 23.4158 6.32635 70.3774 5.50035 4.6138 29.5537 1.94222 -3.41019 179.124 19.8559 92.715 -60.2259 -14.6664 -3.21971 94.7064 -16.8534 -1.50568 22.2452 -1.98388 5.38949 0.0217383 8.22602 -90.4201 10.4212 -0.149242 -0.823325 -1.25002 -0.18532 -0.81596 -23.7831 0.105119 -0.830106 -3.77049 0.105091 -0.830113 91.8144 -27.6136 -103.966 45.0105 -7.82008 16.384 -31.2798 -8.23744 -77.2779 -36.1957 2.35827 -15.4366 -83.5648 -48.8928 88.2908 -9.13976 20.5569 -29.7115 35.0441 -16.0069 -95.1648 -5.40769 0.393793 -22.3287 12.7169 4.61941 -8.20424 -2.33341 6.51521 5.51367 
